<svg width="91" height="11" viewBox="0 0 91 11" fill="none" xmlns="http://www.w3.org/2000/svg">
<g clip-path="url(#clip0_1_45)">
<path opacity="0.3" d="M86.971 2.56027C86.4129 2.23437 85.8036 2.07143 85.1429 2.07143C84.4821 2.07143 83.8728 2.23437 83.3147 2.56027C82.7567 2.88616 82.3147 3.32812 81.9888 3.88616C81.6629 4.4442 81.5 5.05357 81.5 5.71429C81.5 6.375 81.6629 6.98437 81.9888 7.54241C82.3147 8.10045 82.7567 8.54241 83.3147 8.8683C83.8728 9.1942 84.4821 9.35714 85.1429 9.35714C85.8036 9.35714 86.4129 9.1942 86.971 8.8683C87.529 8.54241 87.971 8.10045 88.2969 7.54241C88.6228 6.98437 88.7857 6.375 88.7857 5.71429C88.7857 5.05357 88.6228 4.4442 88.2969 3.88616C87.971 3.32812 87.529 2.88616 86.971 2.56027ZM89.596 3.13616C90.0558 3.92187 90.2857 4.78125 90.2857 5.71429C90.2857 6.64732 90.0558 7.50893 89.596 8.29911C89.1362 9.08482 88.5112 9.70759 87.721 10.1674C86.9353 10.6272 86.0759 10.8571 85.1429 10.8571C84.2098 10.8571 83.3482 10.6272 82.558 10.1674C81.7723 9.70759 81.1496 9.08482 80.6897 8.29911C80.2299 7.50893 80 6.64732 80 5.71429C80 4.78125 80.2299 3.92187 80.6897 3.13616C81.1496 2.34598 81.7723 1.72098 82.558 1.26116C83.3482 0.801339 84.2098 0.571428 85.1429 0.571428C86.0759 0.571428 86.9353 0.801339 87.721 1.26116C88.5112 1.72098 89.1362 2.34598 89.596 3.13616Z" fill="white"/>
<path opacity="0.3" d="M66.971 2.56027C66.4129 2.23437 65.8036 2.07143 65.1429 2.07143C64.4821 2.07143 63.8728 2.23437 63.3147 2.56027C62.7567 2.88616 62.3147 3.32812 61.9888 3.88616C61.6629 4.4442 61.5 5.05357 61.5 5.71429C61.5 6.375 61.6629 6.98437 61.9888 7.54241C62.3147 8.10045 62.7567 8.54241 63.3147 8.8683C63.8728 9.1942 64.4821 9.35714 65.1429 9.35714C65.8036 9.35714 66.4129 9.1942 66.971 8.8683C67.529 8.54241 67.971 8.10045 68.2969 7.54241C68.6228 6.98437 68.7857 6.375 68.7857 5.71429C68.7857 5.05357 68.6228 4.4442 68.2969 3.88616C67.971 3.32812 67.529 2.88616 66.971 2.56027ZM69.596 3.13616C70.0558 3.92187 70.2857 4.78125 70.2857 5.71429C70.2857 6.64732 70.0558 7.50893 69.596 8.29911C69.1362 9.08482 68.5112 9.70759 67.721 10.1674C66.9353 10.6272 66.0759 10.8571 65.1429 10.8571C64.2098 10.8571 63.3482 10.6272 62.558 10.1674C61.7723 9.70759 61.1496 9.08482 60.6897 8.29911C60.2299 7.50893 60 6.64732 60 5.71429C60 4.78125 60.2299 3.92187 60.6897 3.13616C61.1496 2.34598 61.7723 1.72098 62.558 1.26116C63.3482 0.801339 64.2098 0.571428 65.1429 0.571428C66.0759 0.571428 66.9353 0.801339 67.721 1.26116C68.5112 1.72098 69.1362 2.34598 69.596 3.13616Z" fill="white"/>
<path opacity="0.3" d="M46.971 2.56027C46.4129 2.23437 45.8036 2.07143 45.1429 2.07143C44.4821 2.07143 43.8728 2.23437 43.3147 2.56027C42.7567 2.88616 42.3147 3.32812 41.9888 3.88616C41.6629 4.4442 41.5 5.05357 41.5 5.71429C41.5 6.375 41.6629 6.98437 41.9888 7.54241C42.3147 8.10045 42.7567 8.54241 43.3147 8.8683C43.8728 9.1942 44.4821 9.35714 45.1429 9.35714C45.8036 9.35714 46.4129 9.1942 46.971 8.8683C47.529 8.54241 47.971 8.10045 48.2969 7.54241C48.6228 6.98437 48.7857 6.375 48.7857 5.71429C48.7857 5.05357 48.6228 4.4442 48.2969 3.88616C47.971 3.32812 47.529 2.88616 46.971 2.56027ZM49.596 3.13616C50.0558 3.92187 50.2857 4.78125 50.2857 5.71429C50.2857 6.64732 50.0558 7.50893 49.596 8.29911C49.1362 9.08482 48.5112 9.70759 47.721 10.1674C46.9353 10.6272 46.0759 10.8571 45.1429 10.8571C44.2098 10.8571 43.3482 10.6272 42.558 10.1674C41.7723 9.70759 41.1496 9.08482 40.6897 8.29911C40.2299 7.50893 40 6.64732 40 5.71429C40 4.78125 40.2299 3.92187 40.6897 3.13616C41.1496 2.34598 41.7723 1.72098 42.558 1.26116C43.3482 0.801339 44.2098 0.571428 45.1429 0.571428C46.0759 0.571428 46.9353 0.801339 47.721 1.26116C48.5112 1.72098 49.1362 2.34598 49.596 3.13616Z" fill="white"/>
<path opacity="0.3" d="M26.971 2.56027C26.4129 2.23437 25.8036 2.07143 25.1429 2.07143C24.4821 2.07143 23.8728 2.23437 23.3147 2.56027C22.7567 2.88616 22.3147 3.32812 21.9888 3.88616C21.6629 4.4442 21.5 5.05357 21.5 5.71429C21.5 6.375 21.6629 6.98437 21.9888 7.54241C22.3147 8.10045 22.7567 8.54241 23.3147 8.8683C23.8728 9.1942 24.4821 9.35714 25.1429 9.35714C25.8036 9.35714 26.4129 9.1942 26.971 8.8683C27.529 8.54241 27.971 8.10045 28.2969 7.54241C28.6228 6.98437 28.7857 6.375 28.7857 5.71429C28.7857 5.05357 28.6228 4.4442 28.2969 3.88616C27.971 3.32812 27.529 2.88616 26.971 2.56027ZM29.596 3.13616C30.0558 3.92187 30.2857 4.78125 30.2857 5.71429C30.2857 6.64732 30.0558 7.50893 29.596 8.29911C29.1362 9.08482 28.5112 9.70759 27.721 10.1674C26.9353 10.6272 26.0759 10.8571 25.1429 10.8571C24.2098 10.8571 23.3482 10.6272 22.558 10.1674C21.7723 9.70759 21.1496 9.08482 20.6897 8.29911C20.2299 7.50893 20 6.64732 20 5.71429C20 4.78125 20.2299 3.92187 20.6897 3.13616C21.1496 2.34598 21.7723 1.72098 22.558 1.26116C23.3482 0.801339 24.2098 0.571428 25.1429 0.571428C26.0759 0.571428 26.9353 0.801339 27.721 1.26116C28.5112 1.72098 29.1362 2.34598 29.596 3.13616Z" fill="white"/>
<path d="M9.59598 3.13616C10.0558 3.92187 10.2857 4.78125 10.2857 5.71429C10.2857 6.64732 10.0558 7.50893 9.59598 8.29911C9.13616 9.08482 8.51116 9.70759 7.72098 10.1674C6.93527 10.6272 6.07589 10.8571 5.14286 10.8571C4.20982 10.8571 3.34821 10.6272 2.55804 10.1674C1.77232 9.70759 1.14955 9.08482 0.689732 8.29911C0.229911 7.50893 0 6.64732 0 5.71429C0 4.78125 0.229911 3.92187 0.689732 3.13616C1.14955 2.34598 1.77232 1.72098 2.55804 1.26116C3.34821 0.801339 4.20982 0.571428 5.14286 0.571428C6.07589 0.571428 6.93527 0.801339 7.72098 1.26116C8.51116 1.72098 9.13616 2.34598 9.59598 3.13616Z" fill="white"/>
</g>
<defs>
<clipPath id="clip0_1_45">
<rect width="91" height="11" fill="white"/>
</clipPath>
</defs>
</svg>
