<svg width="11" height="91" viewBox="0 0 11 91" fill="none" xmlns="http://www.w3.org/2000/svg">
<g clip-path="url(#clip0_1_181)">
<path opacity="0.3" d="M8.43973 86.971C8.76563 86.4129 8.92857 85.8036 8.92857 85.1429C8.92857 84.4821 8.76563 83.8728 8.43973 83.3147C8.11384 82.7567 7.67188 82.3147 7.11384 81.9888C6.5558 81.6629 5.94643 81.5 5.28571 81.5C4.625 81.5 4.01563 81.6629 3.45759 81.9888C2.89955 82.3147 2.45759 82.7567 2.1317 83.3147C1.8058 83.8728 1.64286 84.4821 1.64286 85.1429C1.64286 85.8036 1.8058 86.4129 2.1317 86.971C2.45759 87.529 2.89955 87.971 3.45759 88.2969C4.01562 88.6228 4.625 88.7857 5.28571 88.7857C5.94643 88.7857 6.5558 88.6228 7.11384 88.2969C7.67187 87.971 8.11384 87.529 8.43973 86.971ZM7.86384 89.596C7.07812 90.0558 6.21875 90.2857 5.28571 90.2857C4.35268 90.2857 3.49107 90.0558 2.70089 89.596C1.91518 89.1362 1.29241 88.5112 0.832589 87.721C0.372768 86.9353 0.142857 86.0759 0.142857 85.1429C0.142857 84.2098 0.372768 83.3482 0.832589 82.558C1.29241 81.7723 1.91518 81.1496 2.70089 80.6897C3.49107 80.2299 4.35268 80 5.28571 80C6.21875 80 7.07813 80.2299 7.86384 80.6897C8.65402 81.1496 9.27902 81.7723 9.73884 82.558C10.1987 83.3482 10.4286 84.2098 10.4286 85.1429C10.4286 86.0759 10.1987 86.9353 9.73884 87.721C9.27902 88.5112 8.65402 89.1362 7.86384 89.596Z" fill="white"/>
<path opacity="0.3" d="M8.43973 66.971C8.76563 66.4129 8.92857 65.8036 8.92857 65.1429C8.92857 64.4821 8.76563 63.8728 8.43973 63.3147C8.11384 62.7567 7.67188 62.3147 7.11384 61.9888C6.5558 61.6629 5.94643 61.5 5.28571 61.5C4.625 61.5 4.01563 61.6629 3.45759 61.9888C2.89955 62.3147 2.45759 62.7567 2.1317 63.3147C1.8058 63.8728 1.64286 64.4821 1.64286 65.1429C1.64286 65.8036 1.8058 66.4129 2.1317 66.971C2.45759 67.529 2.89955 67.971 3.45759 68.2969C4.01562 68.6228 4.625 68.7857 5.28571 68.7857C5.94643 68.7857 6.5558 68.6228 7.11384 68.2969C7.67187 67.971 8.11384 67.529 8.43973 66.971ZM7.86384 69.596C7.07812 70.0558 6.21875 70.2857 5.28571 70.2857C4.35268 70.2857 3.49107 70.0558 2.70089 69.596C1.91518 69.1362 1.29241 68.5112 0.832589 67.721C0.372768 66.9353 0.142857 66.0759 0.142857 65.1429C0.142857 64.2098 0.372768 63.3482 0.832589 62.558C1.29241 61.7723 1.91518 61.1496 2.70089 60.6897C3.49107 60.2299 4.35268 60 5.28571 60C6.21875 60 7.07813 60.2299 7.86384 60.6897C8.65402 61.1496 9.27902 61.7723 9.73884 62.558C10.1987 63.3482 10.4286 64.2098 10.4286 65.1429C10.4286 66.0759 10.1987 66.9353 9.73884 67.721C9.27902 68.5112 8.65402 69.1362 7.86384 69.596Z" fill="white"/>
<path opacity="0.3" d="M8.43973 46.971C8.76563 46.4129 8.92857 45.8036 8.92857 45.1429C8.92857 44.4821 8.76563 43.8728 8.43973 43.3147C8.11384 42.7567 7.67188 42.3147 7.11384 41.9888C6.5558 41.6629 5.94643 41.5 5.28571 41.5C4.625 41.5 4.01563 41.6629 3.45759 41.9888C2.89955 42.3147 2.45759 42.7567 2.1317 43.3147C1.8058 43.8728 1.64286 44.4821 1.64286 45.1429C1.64286 45.8036 1.8058 46.4129 2.1317 46.971C2.45759 47.529 2.89955 47.971 3.45759 48.2969C4.01562 48.6228 4.625 48.7857 5.28571 48.7857C5.94643 48.7857 6.5558 48.6228 7.11384 48.2969C7.67187 47.971 8.11384 47.529 8.43973 46.971ZM7.86384 49.596C7.07812 50.0558 6.21875 50.2857 5.28571 50.2857C4.35268 50.2857 3.49107 50.0558 2.70089 49.596C1.91518 49.1362 1.29241 48.5112 0.832589 47.721C0.372768 46.9353 0.142857 46.0759 0.142857 45.1429C0.142857 44.2098 0.372768 43.3482 0.832589 42.558C1.29241 41.7723 1.91518 41.1496 2.70089 40.6897C3.49107 40.2299 4.35268 40 5.28571 40C6.21875 40 7.07813 40.2299 7.86384 40.6897C8.65402 41.1496 9.27902 41.7723 9.73884 42.558C10.1987 43.3482 10.4286 44.2098 10.4286 45.1429C10.4286 46.0759 10.1987 46.9353 9.73884 47.721C9.27902 48.5112 8.65402 49.1362 7.86384 49.596Z" fill="white"/>
<path opacity="0.3" d="M8.43973 26.971C8.76563 26.4129 8.92857 25.8036 8.92857 25.1429C8.92857 24.4821 8.76563 23.8728 8.43973 23.3147C8.11384 22.7567 7.67188 22.3147 7.11384 21.9888C6.5558 21.6629 5.94643 21.5 5.28571 21.5C4.625 21.5 4.01563 21.6629 3.45759 21.9888C2.89955 22.3147 2.45759 22.7567 2.1317 23.3147C1.8058 23.8728 1.64286 24.4821 1.64286 25.1429C1.64286 25.8036 1.8058 26.4129 2.1317 26.971C2.45759 27.529 2.89955 27.971 3.45759 28.2969C4.01562 28.6228 4.625 28.7857 5.28571 28.7857C5.94643 28.7857 6.5558 28.6228 7.11384 28.2969C7.67187 27.971 8.11384 27.529 8.43973 26.971ZM7.86384 29.596C7.07812 30.0558 6.21875 30.2857 5.28571 30.2857C4.35268 30.2857 3.49107 30.0558 2.70089 29.596C1.91518 29.1362 1.29241 28.5112 0.832589 27.721C0.372768 26.9353 0.142857 26.0759 0.142857 25.1429C0.142857 24.2098 0.372768 23.3482 0.832589 22.558C1.29241 21.7723 1.91518 21.1496 2.70089 20.6897C3.49107 20.2299 4.35268 20 5.28571 20C6.21875 20 7.07813 20.2299 7.86384 20.6897C8.65402 21.1496 9.27902 21.7723 9.73884 22.558C10.1987 23.3482 10.4286 24.2098 10.4286 25.1429C10.4286 26.0759 10.1987 26.9353 9.73884 27.721C9.27902 28.5112 8.65402 29.1362 7.86384 29.596Z" fill="white"/>
<path d="M7.86384 9.59598C7.07812 10.0558 6.21875 10.2857 5.28571 10.2857C4.35268 10.2857 3.49107 10.0558 2.70089 9.59598C1.91518 9.13616 1.29241 8.51116 0.832589 7.72098C0.372768 6.93527 0.142857 6.07589 0.142857 5.14286C0.142857 4.20982 0.372768 3.34821 0.832589 2.55804C1.29241 1.77232 1.91518 1.14955 2.70089 0.689732C3.49107 0.22991 4.35268 -2.90564e-07 5.28571 -2.49779e-07C6.21875 -2.08995e-07 7.07813 0.229911 7.86384 0.689732C8.65402 1.14955 9.27902 1.77232 9.73884 2.55804C10.1987 3.34821 10.4286 4.20982 10.4286 5.14286C10.4286 6.07589 10.1987 6.93527 9.73884 7.72098C9.27902 8.51116 8.65402 9.13616 7.86384 9.59598Z" fill="white"/>
</g>
<defs>
<clipPath id="clip0_1_181">
<rect width="91" height="11" fill="white" transform="translate(11) rotate(90)"/>
</clipPath>
</defs>
</svg>
